<?xml version="1.0" standalone="no"?>
<!DOCTYPE svg PUBLIC "-//W3C//DTD SVG 20010904//EN"
 "http://www.w3.org/TR/2001/REC-SVG-20010904/DTD/svg10.dtd">
<svg version="1.0" xmlns="http://www.w3.org/2000/svg"
 width="300.000000pt" height="300.000000pt" viewBox="0 0 300.000000 300.000000"
 preserveAspectRatio="xMidYMid meet">
<metadata>
Created by potrace 1.10, written by Peter Selinger 2001-2011
</metadata>
<g transform="translate(0.000000,300.000000) scale(0.100000,-0.100000)"
fill="#000000" stroke="none">
<path d="M1350 2797 c-3 -3 -23 -7 -45 -10 -48 -5 -216 -50 -271 -73 -127 -52
-295 -154 -369 -225 -22 -21 -43 -39 -46 -39 -12 0 -153 -171 -196 -237 -42
-67 -122 -219 -127 -245 -2 -7 -8 -25 -14 -39 -37 -91 -65 -254 -67 -404 -3
-126 1 -169 29 -310 60 -306 299 -642 576 -813 76 -47 205 -108 265 -126 6 -2
17 -6 25 -9 37 -15 188 -49 248 -55 134 -14 335 -5 427 20 22 6 45 11 50 12
50 10 147 46 225 83 206 99 346 213 500 409 25 32 88 138 116 195 14 30 33 68
42 84 9 17 15 30 13 30 -2 0 9 38 23 84 31 99 34 111 48 259 14 138 0 331 -32
442 -7 25 -15 50 -16 55 -54 207 -248 492 -434 637 -140 110 -371 223 -494
242 -21 4 -42 9 -47 12 -5 2 -23 7 -41 11 -44 7 -382 16 -388 10z m330 -27
c68 -10 75 -12 152 -29 149 -34 351 -136 488 -247 64 -52 190 -188 240 -260
75 -109 149 -267 190 -409 37 -129 48 -370 24 -510 -14 -81 -16 -88 -33 -161
-15 -58 -63 -177 -107 -259 -161 -303 -485 -555 -814 -632 -126 -29 -197 -35
-355 -30 -152 4 -202 11 -305 43 -25 8 -54 17 -65 19 -22 5 -27 7 -145 63
-252 119 -461 327 -588 589 -62 126 -89 218 -120 398 -2 17 -5 93 -5 170 0
251 65 470 201 680 131 201 291 345 502 450 138 70 233 100 395 125 73 11 270
11 345 0z"/>
<path d="M1440 2743 l-45 -4 3 -63 c4 -71 9 -76 75 -68 47 5 44 26 -4 27 -24
0 -35 6 -37 19 -3 15 1 17 27 11 24 -5 31 -3 31 9 0 9 -12 16 -32 18 -44 4
-37 23 7 23 27 0 35 4 35 18 0 9 -3 16 -7 15 -5 -1 -28 -3 -53 -5z"/>
<path d="M1160 2696 c0 -3 4 -16 9 -30 9 -22 7 -26 -21 -35 -40 -14 -38 -14
-38 9 0 20 -25 38 -36 27 -7 -7 38 -137 47 -137 15 0 19 19 10 43 -9 23 -7 27
21 36 17 6 32 10 33 9 1 -2 6 -15 11 -30 6 -17 13 -25 21 -20 15 10 -24 132
-43 132 -8 0 -14 -2 -14 -4z"/>
<path d="M1840 2662 c-8 -21 -15 -39 -15 -42 -1 -3 -5 -13 -9 -22 -11 -25 -2
-34 48 -47 58 -14 79 -6 73 27 -3 14 2 36 10 48 14 21 13 24 -16 39 -72 37
-76 36 -91 -3z m78 -27 c3 -15 -1 -17 -24 -11 -36 9 -36 10 -28 29 8 21 48 7
52 -18z m-24 -31 c22 -9 20 -34 -3 -34 -32 0 -50 11 -44 26 6 15 22 18 47 8z"/>
<path d="M846 2549 c-39 -30 -49 -55 -35 -81 16 -31 39 -47 66 -48 22 0 83 44
83 61 0 16 -26 10 -45 -11 -32 -35 -75 -19 -75 28 0 17 8 27 30 35 17 6 30 17
30 24 0 19 -24 16 -54 -8z"/>
<path d="M1400 2567 c-3 -3 -27 -8 -55 -11 -69 -9 -71 -10 -150 -34 -146 -46
-297 -136 -413 -245 -56 -51 -149 -164 -176 -212 -9 -17 -25 -43 -35 -60 -10
-16 -30 -61 -46 -100 -103 -257 -107 -513 -12 -780 47 -133 149 -287 263 -397
156 -151 366 -254 584 -286 58 -9 240 -9 305 0 332 43 636 258 794 560 89 171
121 301 121 498 0 197 -32 327 -121 498 -144 274 -425 490 -714 546 -16 4 -41
9 -55 12 -33 8 -284 17 -290 11z m310 -37 c339 -66 630 -297 766 -610 67 -154
78 -215 78 -420 0 -203 -10 -262 -75 -414 -123 -289 -406 -531 -704 -603 -193
-46 -421 -39 -573 16 -29 11 -52 18 -52 15 0 -2 -44 19 -98 46 -299 150 -493
404 -568 742 -20 92 -20 304 0 396 64 289 219 522 451 677 46 30 205 112 223
115 4 0 34 9 68 19 33 11 85 22 115 26 30 4 56 8 58 10 11 11 230 0 311 -15z"/>
<path d="M1453 2493 c-47 -9 -63 -47 -63 -148 0 -85 2 -93 25 -115 22 -20 25
-32 25 -87 l0 -63 -161 0 -160 0 3 -37 3 -38 157 -39 156 -39 -5 -76 c-3 -42
-7 -78 -9 -80 -3 -3 -138 -5 -302 -5 -191 -1 -297 -5 -297 -11 0 -7 238 -10
693 -10 560 -1 692 2 692 12 0 10 -14 12 -57 7 -53 -7 -56 -6 -49 12 12 31 26
114 26 154 0 45 -42 165 -68 194 -11 12 -23 31 -27 44 -8 27 -99 118 -140 139
-16 9 -42 26 -57 38 -26 22 -45 27 -155 41 -48 5 -53 8 -53 31 0 14 -12 37
-28 52 -23 23 -36 28 -77 28 -28 0 -60 -2 -72 -4z m141 -29 c22 -21 31 -63 17
-77 -8 -8 -11 -6 -11 9 0 12 -10 32 -22 45 -14 17 -19 19 -15 7 4 -10 2 -18
-3 -18 -6 0 -10 7 -10 15 0 11 -11 15 -40 15 -58 0 -74 -23 -71 -102 4 -93 11
-102 80 -95 40 3 58 1 58 -7 0 -7 -13 -10 -34 -8 -26 3 -32 1 -27 -11 6 -16
68 -18 92 -4 17 11 15 30 -3 23 -9 -3 -15 0 -15 9 0 21 95 10 127 -15 14 -11
35 -20 47 -20 13 0 32 -13 44 -30 14 -18 32 -30 45 -30 17 0 26 -9 36 -35 8
-23 21 -37 37 -41 19 -5 24 -13 24 -39 0 -18 8 -43 18 -56 11 -13 22 -46 25
-74 4 -40 2 -55 -14 -74 -10 -13 -19 -36 -19 -52 0 -26 -3 -29 -32 -29 -102
-2 -316 -2 -331 -1 -16 1 -17 10 -15 82 l3 82 135 32 c175 43 170 40 170 81
l0 34 -155 0 -155 0 0 55 c0 44 -3 53 -15 49 -8 -4 -15 -1 -15 5 0 6 7 11 15
11 8 0 15 5 15 11 0 15 -32 7 -40 -11 -4 -8 -12 -25 -19 -37 -10 -21 -9 -23
16 -24 17 -1 21 -3 11 -6 -10 -2 -18 -9 -18 -15 0 -6 9 -8 20 -5 12 3 20 0 20
-8 0 -8 -8 -11 -20 -8 -11 3 -20 0 -20 -6 0 -6 -13 -11 -30 -11 l-30 0 0 79
c0 55 4 81 13 84 6 2 2 2 -10 0 -13 -2 -23 1 -23 7 0 6 -4 8 -10 5 -5 -3 -10
1 -10 9 0 9 -5 16 -11 16 -6 0 -8 -9 -4 -22 4 -17 3 -19 -3 -8 -5 8 -9 54 -8
101 1 116 13 129 107 129 48 0 72 -5 83 -16z m-32 -51 c25 -22 23 -33 -6 -33
-14 0 -31 -6 -38 -13 -7 -7 -25 -20 -40 -30 l-28 -17 0 39 c0 23 7 46 16 55
20 21 73 20 96 -1z m78 -40 c0 -3 -8 -15 -17 -26 -10 -11 -12 -17 -5 -13 7 4
15 1 18 -8 3 -9 10 -13 15 -10 5 3 6 -2 3 -10 -6 -15 11 -17 33 -3 6 4 14 3
18 -3 11 -17 -47 -25 -59 -7 -9 11 -16 13 -30 5 -10 -6 -31 -12 -48 -15 -27
-4 -29 -2 -23 19 8 28 59 78 80 78 8 0 15 -3 15 -7z m-94 -48 c-12 -24 -26
-44 -33 -45 -19 0 -27 21 -12 31 8 5 10 9 5 9 -5 0 -3 7 4 15 7 8 16 12 21 9
5 -3 9 -2 8 3 -3 16 1 23 15 23 10 0 8 -11 -8 -45z m124 30 c-8 -9 -9 -15 -2
-15 6 0 14 5 17 10 8 13 101 13 126 0 10 -6 19 -16 19 -23 0 -8 -3 -8 -9 2 -7
11 -17 9 -56 -8 -34 -15 -51 -18 -61 -11 -9 8 -14 8 -20 -1 -4 -8 -11 -4 -20
12 -7 13 -13 20 -14 16 0 -5 -4 -5 -10 -2 -12 8 9 34 29 35 11 0 11 -3 1 -15z
m185 -59 c6 -6 20 -11 32 -10 13 1 28 -5 34 -13 9 -11 9 -12 -3 -8 -9 4 -40 2
-69 -3 -64 -12 -91 -6 -63 15 10 7 14 13 10 13 -4 0 -20 -9 -36 -20 -24 -17
-29 -18 -40 -5 -9 11 -4 18 27 34 40 21 89 20 108 -3z m119 -67 c8 -9 8 -10 0
-6 -6 3 -24 2 -40 -3 l-29 -8 35 -3 c19 -1 41 -3 48 -3 14 -1 38 -36 25 -36
-4 0 -20 6 -34 14 -21 11 -36 11 -66 3 -46 -12 -88 -4 -97 19 -5 13 -3 14 6 7
7 -5 22 -13 32 -17 16 -5 17 -4 7 8 -7 8 -10 19 -7 24 3 4 -9 6 -27 4 -18 -3
-29 -1 -25 2 3 4 28 11 55 15 51 8 99 -1 117 -20z m-517 -116 c-2 -21 -4 -4
-4 37 0 41 2 58 4 38 2 -21 2 -55 0 -75z m533 47 c0 -5 3 -9 8 -8 17 5 54 -26
72 -62 21 -42 18 -49 -14 -25 -11 8 -46 20 -78 26 -49 10 -61 17 -73 40 -8 15
-15 30 -15 34 0 3 23 5 50 5 28 0 50 -4 50 -10z m77 -117 c32 -24 43 -43 43
-70 0 -12 -3 -13 -14 -3 -8 6 -12 18 -9 27 4 11 2 14 -8 11 -8 -3 -14 -11 -15
-19 -1 -21 26 -48 42 -42 10 4 14 -3 14 -27 0 -19 -4 -29 -10 -25 -6 4 -8 16
-5 28 4 15 3 18 -3 9 -7 -10 -11 -10 -22 3 -8 9 -30 25 -50 35 -49 25 -67 47
-51 63 10 9 11 9 8 -3 -2 -8 -2 -12 0 -7 3 4 10 5 16 1 7 -3 0 5 -16 18 -15
13 -24 27 -20 31 12 12 66 -4 100 -30z m-567 2 c0 -23 -3 -25 -47 -24 -56 1
-159 16 -124 18 13 0 22 4 18 7 -9 9 -68 -7 -61 -17 3 -5 24 -9 47 -9 23 -1
76 -7 117 -14 76 -14 96 -12 70 4 -12 8 -9 10 10 10 19 0 22 2 10 9 -8 6 -18
7 -23 4 -5 -3 -7 3 -5 13 3 18 16 19 174 22 l172 2 5 -27 c3 -16 5 -28 4 -28
-1 -1 -80 -20 -175 -44 -96 -23 -176 -41 -179 -38 -2 3 20 10 51 17 61 13 70
19 54 40 -8 13 -9 12 -5 -1 4 -12 -6 -19 -45 -27 -27 -7 -59 -12 -71 -12 -18
0 -19 -2 -7 -10 12 -8 11 -10 -5 -9 -11 1 -31 5 -45 9 -21 7 -22 8 -5 10 20 1
20 1 0 9 -11 5 -21 4 -23 0 -2 -5 -10 -9 -18 -9 -9 0 -12 5 -8 11 4 8 -1 9
-15 4 -12 -4 -28 -2 -36 5 -8 6 -20 8 -26 4 -8 -5 -9 -3 -4 6 5 9 2 10 -14 5
-19 -6 -27 -2 -66 33 -9 8 -15 9 -15 3 0 -19 -20 -12 -21 7 0 14 -2 14 -9 -3
-8 -19 -9 -19 -9 -1 -1 10 -9 25 -18 32 -15 11 11 13 165 14 l182 0 0 -25z
m582 -130 c9 -11 20 -32 23 -47 7 -28 -10 -98 -24 -98 -10 0 -45 69 -38 76 3
3 12 -7 20 -23 l15 -28 -1 27 c-1 14 -6 26 -11 25 -5 -1 -10 3 -13 10 -3 8 3
11 18 8 l22 -4 -23 21 c-21 20 -24 20 -35 5 -15 -21 -25 -12 -25 23 0 55 27
57 72 5z m-627 -143 c-10 -11 -12 4 -6 78 l6 75 3 -74 c2 -40 0 -76 -3 -79z
m35 140 c0 -5 19 -7 42 -5 36 4 40 2 29 -10 -9 -12 -9 -16 1 -20 7 -3 -2 -6
-19 -6 -18 -1 -33 -6 -33 -12 0 -5 5 -7 10 -4 6 3 10 0 10 -7 0 -8 3 -9 8 -3
19 26 32 14 32 -30 0 -42 -2 -45 -27 -46 -16 0 -38 -2 -50 -3 -22 -3 -23 0
-23 76 0 45 4 78 10 78 6 0 10 -4 10 -8z m549 -56 c-7 -15 -18 -25 -24 -22 -7
2 -10 -6 -7 -25 3 -19 10 -29 21 -29 12 0 13 2 3 9 -11 7 -11 9 1 14 14 5 27
-11 27 -32 0 -5 -19 -8 -42 -7 -37 1 -43 4 -46 24 -4 29 25 75 43 68 8 -3 17
3 20 15 4 11 9 18 11 16 3 -2 -1 -16 -7 -31z"/>
<path d="M1482 2156 c-1 -25 2 -48 8 -51 6 -4 10 13 10 44 0 63 -14 68 -18 7z"/>
<path d="M1610 1805 c0 -19 5 -25 23 -24 12 0 16 3 10 6 -7 2 -13 13 -13 24 0
10 -4 19 -10 19 -5 0 -10 -11 -10 -25z"/>
<path d="M1743 1819 c-15 -15 -5 -39 17 -39 22 0 32 24 17 39 -6 6 -14 11 -17
11 -3 0 -11 -5 -17 -11z"/>
<path d="M1880 1804 c0 -23 2 -24 15 -10 8 8 15 19 15 25 0 6 -7 11 -15 11 -9
0 -15 -10 -15 -26z"/>
<path d="M2003 2129 c9 -6 15 -13 13 -17 -2 -4 7 -13 21 -19 22 -11 23 -10 12
5 -19 24 -41 42 -53 42 -6 0 -3 -5 7 -11z"/>
<path d="M1763 2042 c-26 -3 -33 -8 -34 -25 -1 -17 -2 -18 -6 -4 -2 9 -10 17
-18 17 -14 0 -43 -30 -29 -30 5 0 2 -5 -6 -10 -13 -8 -12 -10 3 -10 9 0 17 5
17 11 0 6 8 8 19 4 10 -3 38 1 62 10 24 8 52 15 62 15 9 0 17 6 17 13 0 12
-26 15 -87 9z"/>
<path d="M1556 1994 c-7 -17 -33 -17 -171 0 -38 5 -37 5 10 -9 63 -19 154 -22
180 -7 14 8 16 12 5 12 -13 0 -13 1 0 10 13 8 13 10 -1 10 -9 0 -20 -7 -23
-16z"/>
<path d="M1191 1805 c0 -16 3 -24 6 -17 4 10 8 10 19 1 11 -9 14 -6 14 17 0
23 -2 26 -10 14 -9 -13 -11 -13 -20 0 -7 12 -10 8 -9 -15z"/>
<path d="M1017 1814 c-11 -11 5 -34 24 -34 12 0 19 7 19 20 0 19 -28 28 -43
14z"/>
<path d="M1360 1800 c0 -9 9 -16 20 -17 13 -1 20 4 20 17 0 13 -7 18 -20 17
-11 -1 -20 -8 -20 -17z"/>
<path d="M921 1702 c-20 -16 -22 -26 -22 -130 -1 -132 9 -152 71 -152 46 0 61
17 68 75 4 41 3 45 -17 45 -33 0 -36 -3 -36 -40 0 -24 -5 -35 -15 -35 -12 0
-16 18 -18 94 -3 106 0 123 23 115 11 -5 15 -16 13 -38 -3 -28 0 -31 26 -34
l29 -4 -6 48 c-3 30 -12 53 -23 61 -25 18 -68 16 -93 -5z"/>
<path d="M1100 1570 l0 -150 60 0 c57 0 60 1 60 25 0 22 -4 25 -35 25 -34 0
-35 1 -35 40 0 38 2 40 30 40 25 0 30 4 30 25 0 21 -5 25 -30 25 -28 0 -30 3
-30 35 0 32 2 35 30 35 25 0 30 4 30 25 0 24 -3 25 -55 25 l-55 0 0 -150z"/>
<path d="M1270 1708 c0 -7 7 -75 17 -150 l17 -138 38 0 c24 0 38 5 38 13 0 6
7 59 15 117 21 155 20 170 -10 170 -22 0 -25 -4 -25 -37 0 -66 -13 -173 -20
-173 -4 0 -11 46 -16 103 -8 95 -11 102 -31 105 -14 2 -23 -2 -23 -10z"/>
<path d="M1470 1570 l0 -150 25 0 25 0 0 150 0 150 -25 0 -25 0 0 -150z"/>
<path d="M1604 1706 c-16 -12 -19 -29 -22 -126 -5 -135 6 -160 67 -160 50 0
71 24 71 82 0 43 -1 45 -24 41 -20 -4 -25 -12 -28 -42 -2 -24 -8 -36 -18 -36
-12 0 -16 19 -18 99 -2 71 1 102 10 107 19 12 28 1 28 -37 0 -30 3 -34 25 -34
23 0 25 4 25 44 0 35 -5 48 -22 60 -28 20 -68 20 -94 2z"/>
<path d="M1780 1570 l0 -150 28 0 28 0 -4 70 c-4 66 -3 70 17 70 19 0 21 -5
21 -70 0 -70 0 -70 28 -70 l27 0 0 150 0 150 -27 0 c-27 0 -28 -2 -28 -55 0
-49 -2 -55 -21 -55 -20 0 -21 4 -17 55 5 55 5 55 -24 55 l-28 0 0 -150z"/>
<path d="M1990 1570 l0 -150 60 0 c57 0 60 1 60 25 0 22 -4 25 -35 25 -34 0
-35 1 -35 40 0 38 2 40 30 40 25 0 30 4 30 25 0 21 -5 25 -30 25 -28 0 -30 3
-30 35 0 33 2 35 35 35 31 0 35 3 35 25 0 24 -3 25 -60 25 l-60 0 0 -150z"/>
<path d="M811 1446 c-25 -30 -53 -135 -58 -218 l-6 -88 36 0 c34 0 37 -3 72
-72 68 -134 145 -215 279 -296 67 -40 163 -82 189 -82 7 0 29 -16 48 -36 43
-45 98 -74 142 -74 33 0 95 36 126 73 7 9 21 17 30 17 23 0 110 34 167 66 157
86 268 200 329 339 20 44 29 54 52 57 l28 3 -2 85 c-2 98 -31 225 -52 225 -7
0 -21 -24 -31 -55 -9 -30 -36 -95 -59 -144 -22 -49 -41 -90 -41 -92 0 -2 9 -4
20 -4 45 0 11 -58 -95 -165 -111 -110 -331 -198 -378 -150 -18 18 -20 53 -17
323 1 97 -2 142 -10 142 -11 0 -7 -430 5 -461 3 -9 20 -23 38 -32 l32 -17 -30
6 c-37 8 -55 29 -56 68 0 32 -16 79 -20 61 -1 -5 -5 8 -9 30 -7 38 -7 36 -8
-20 -1 -38 2 -55 7 -46 7 11 10 8 16 -10 5 -14 3 -25 -4 -27 -14 -5 -14 -24 0
-56 7 -15 24 -27 48 -33 39 -10 64 -7 55 8 -3 5 4 9 15 9 11 0 23 5 27 11 4 8
0 9 -15 4 -12 -4 -21 -2 -21 4 0 6 13 11 29 11 16 0 37 3 47 7 11 4 15 3 11
-4 -5 -7 1 -9 15 -5 18 5 19 7 6 10 -10 2 19 22 70 47 47 25 87 43 88 42 2 -2
-15 -15 -38 -30 -23 -15 -37 -27 -31 -27 23 0 180 128 164 134 -3 0 3 13 13
28 10 15 22 25 27 23 4 -3 16 6 25 20 13 20 20 23 28 14 8 -8 8 -13 -1 -16 -7
-3 -13 -11 -13 -19 0 -8 -5 -14 -11 -14 -8 0 -9 -11 -5 -32 3 -17 3 -29 0 -25
-8 8 -34 -11 -34 -25 0 -5 5 -6 12 -2 7 4 8 3 4 -5 -9 -14 -26 -5 -26 15 0 13
-2 13 -13 2 -8 -7 -32 -30 -55 -50 -27 -24 -39 -43 -36 -53 3 -8 10 -13 15
-10 4 3 6 12 3 19 -3 8 0 17 7 22 9 5 10 2 6 -10 -5 -11 -3 -16 5 -14 6 2 12
14 13 25 1 12 9 29 19 39 15 14 19 15 26 4 11 -18 3 -31 -15 -23 -8 3 -15 0
-15 -7 0 -6 6 -8 13 -5 6 4 -5 -10 -27 -29 -21 -20 -43 -33 -47 -30 -5 3 -9 0
-9 -6 0 -6 -4 -9 -9 -5 -5 3 -12 1 -16 -5 -10 -16 -25 -11 -18 6 3 9 2 15 -3
13 -73 -33 -205 -101 -201 -105 2 -3 46 15 96 39 82 38 92 41 89 23 -2 -10
-10 -21 -18 -23 -13 -4 -13 -3 0 7 10 8 11 10 2 8 -8 -2 -13 -7 -12 -12 2 -10
-20 -26 -35 -26 -5 0 -3 5 5 11 10 7 11 9 2 7 -8 -2 -13 -8 -13 -13 0 -6 -14
-18 -32 -27 -45 -24 -59 -21 -17 3 35 20 28 19 -40 -7 -25 -9 -29 -14 -15 -14
13 -1 8 -5 -14 -12 -26 -7 -36 -6 -43 4 -8 10 -9 9 -5 -3 9 -28 -83 -99 -128
-99 -35 0 -119 55 -109 71 3 5 20 -5 37 -21 40 -37 79 -43 44 -7 -12 13 -25
22 -29 20 -3 -2 -12 3 -20 10 -7 7 -25 20 -40 30 -16 9 -27 23 -25 29 1 7 -9
14 -22 16 -20 3 -23 0 -18 -17 6 -23 0 -26 -23 -11 -8 5 -10 10 -4 10 24 0 9
29 -24 44 -27 13 -37 14 -49 5 -11 -10 -11 -14 -1 -20 20 -13 28 -10 21 8 -4
10 -2 14 4 10 11 -7 25 -47 17 -47 -21 0 -207 110 -200 118 3 3 1 11 -5 19 -7
8 -8 13 -1 13 15 0 33 -26 24 -35 -4 -5 -1 -5 5 -1 14 8 56 -11 49 -22 -2 -4
10 -8 26 -8 27 -1 24 2 -27 30 -32 17 -79 50 -105 73 -50 45 -65 51 -74 31 -3
-7 -4 -1 -2 15 3 22 1 25 -10 16 -11 -9 -14 -8 -14 4 0 8 3 17 8 20 4 2 1 2
-7 0 -9 -2 -11 2 -7 13 6 15 4 15 -11 3 -15 -12 -16 -12 -11 2 4 9 1 22 -5 28
-6 6 -7 11 -2 11 6 0 4 4 -3 9 -10 6 -10 10 1 20 12 10 23 0 61 -54 47 -66 67
-84 45 -42 -7 13 7 4 34 -23 25 -24 43 -48 41 -52 -8 -12 114 -87 152 -94 19
-3 31 -10 29 -15 -15 -24 141 -38 185 -16 25 13 42 67 21 67 -6 0 -11 7 -11
16 0 8 5 12 10 9 15 -9 12 7 -5 29 -14 18 -15 17 -15 -22 0 -44 -25 -72 -65
-72 -15 1 -12 4 12 15 17 7 33 22 36 32 3 10 7 105 9 210 2 141 6 193 15 193
17 0 23 13 16 38 -3 13 -13 22 -24 22 -24 0 -25 -27 -1 -33 15 -4 15 -5 0 -6
-15 -1 -17 -22 -18 -208 -1 -186 -3 -210 -19 -226 -17 -18 -20 -15 -73 65 -89
132 -109 183 -110 278 -1 44 -5 80 -10 80 -4 0 -8 5 -8 11 0 6 -7 18 -17 27
-12 13 -15 13 -10 2 4 -8 10 -23 13 -32 4 -10 10 -18 15 -18 5 0 9 -7 9 -15 0
-21 -9 -19 -39 8 -21 17 -23 18 -10 2 26 -32 44 -69 29 -60 -8 5 -11 3 -8 -6
3 -8 9 -13 14 -12 5 1 10 -14 11 -33 3 -34 -13 -47 -23 -19 -4 8 -12 15 -20
15 -19 0 -46 44 -39 63 7 16 21 17 43 3 11 -7 11 -4 1 12 -7 12 -17 18 -21 16
-4 -3 -8 1 -8 8 -1 7 -7 0 -15 -17 -12 -28 -13 -28 -14 -7 -1 31 16 62 35 62
13 0 13 2 -1 16 -9 10 -14 25 -12 35 3 11 2 21 -3 24 -4 3 -10 -12 -13 -33 -3
-20 -9 -58 -12 -83 -4 -27 -3 -54 3 -65 6 -11 7 -27 1 -42 -7 -18 -5 -35 10
-66 11 -22 22 -55 26 -73 3 -17 17 -43 31 -58 13 -14 24 -34 24 -44 0 -9 5
-22 12 -29 21 -21 -5 -13 -56 17 -65 39 -155 129 -213 213 -47 68 -47 68 -25
83 l21 15 -30 71 c-17 39 -39 99 -50 135 -20 66 -28 74 -48 50z m39 -58 c6
-24 24 -74 40 -113 17 -38 30 -73 30 -77 0 -4 -13 -14 -29 -23 -29 -14 -29
-14 -41 18 -7 17 -14 74 -17 124 -3 51 -9 90 -13 88 -5 -3 -7 -21 -6 -40 1
-19 -4 -37 -11 -39 -6 -3 -11 -18 -11 -35 1 -22 5 -28 17 -24 13 4 13 2 -1
-10 -23 -18 -23 -26 1 -20 14 4 20 -4 29 -37 8 -34 8 -39 -3 -30 -10 8 -14 7
-18 -7 -4 -15 -5 -14 -6 4 0 12 5 24 12 26 8 4 7 6 -3 6 -8 0 -22 -4 -30 -9
-10 -6 -11 -10 -2 -10 6 0 12 -7 12 -15 0 -8 -9 -15 -20 -15 -14 0 -20 7 -20
21 0 12 8 23 20 26 11 3 20 9 20 13 0 5 -10 6 -22 2 -20 -5 -21 -3 -15 39 10
74 46 179 62 179 8 0 19 -17 25 -42z m1330 -48 c-7 -16 -9 -42 -5 -59 6 -27 4
-29 -17 -24 -22 5 -22 5 -3 -10 16 -13 18 -20 9 -53 -9 -36 -12 -39 -42 -37
-19 0 -36 3 -39 6 -2 3 14 44 36 91 22 47 43 98 47 113 10 42 19 51 22 25 2
-13 -2 -37 -8 -52z m44 -26 c3 -9 6 -33 6 -55 0 -34 -3 -39 -22 -40 -13 0 -17
-3 -11 -6 10 -3 10 -8 -1 -19 -21 -20 -23 -18 -18 17 4 24 9 30 23 26 11 -3
19 -1 19 4 0 5 -7 9 -15 9 -8 0 -15 5 -15 11 0 6 7 9 15 5 8 -3 15 -1 15 4 0
6 -7 10 -16 10 -11 0 -14 5 -10 16 3 9 6 20 6 25 0 15 17 10 24 -7z m-1340
-181 c3 -10 8 -23 11 -29 3 -6 -2 -14 -11 -18 -14 -5 -15 -4 -4 9 15 18 0 20
-19 3 -11 -10 -13 -10 -7 0 4 6 3 12 -2 12 -6 0 -13 7 -16 16 -3 8 -2 12 4 9
6 -3 10 -1 10 4 0 18 27 12 34 -6z m95 -107 c6 -4 11 -12 11 -19 0 -7 -5 -6
-14 3 -24 26 -86 122 -86 134 0 6 18 -17 39 -50 21 -34 44 -65 50 -68z m228
52 c13 -18 28 -39 34 -46 17 -20 6 -37 -13 -19 -8 9 -18 14 -21 11 -10 -10
-65 29 -76 53 -6 13 -11 35 -11 49 l0 26 33 -20 c17 -11 42 -35 54 -54z m923
52 c1 21 30 -18 30 -39 0 -23 -62 -118 -67 -104 -3 7 5 25 17 41 22 29 22 30
4 58 -12 17 -14 25 -5 20 10 -7 12 -3 6 15 -5 19 -4 21 4 9 10 -13 11 -13 11
0z m-918 -129 c53 -23 86 -54 104 -96 7 -17 20 -37 28 -45 17 -13 22 -31 9
-28 -5 0 -16 -2 -25 -6 -23 -11 -86 11 -98 34 -17 32 -11 38 36 32 37 -4 46
-2 42 9 -5 15 -20 16 -53 4 -20 -7 -20 -6 -1 9 16 13 17 16 4 16 -8 0 -21 7
-28 15 -7 8 -18 15 -24 15 -6 -1 -1 -9 12 -20 12 -10 19 -21 14 -24 -12 -7
-54 23 -47 35 4 5 -1 12 -9 15 -9 3 -16 17 -16 30 0 29 -2 29 52 5z m-196 -96
c21 -19 32 -35 24 -35 -9 0 -7 -5 6 -15 10 -8 16 -15 11 -15 -14 0 -97 82 -91
91 7 13 7 13 50 -26z m114 -25 c14 -10 57 -29 95 -44 43 -16 56 -24 35 -20
-42 7 -125 46 -160 75 -27 22 -10 16 30 -11z m330 -55 c0 -23 -64 -53 -75 -35
-6 10 23 22 35 15 5 -3 11 4 15 15 7 23 25 27 25 5z m124 -27 c12 -9 30 -17
40 -18 11 0 17 -3 13 -6 -9 -10 -54 4 -71 22 -9 8 -16 23 -15 32 0 14 2 14 6
2 4 -8 16 -22 27 -32z m-234 -3 c0 -10 -7 -14 -22 -11 -13 3 -32 5 -43 6 -20
1 -20 1 0 10 33 14 65 12 65 -5z"/>
<path d="M850 1239 c0 -7 9 -9 23 -6 20 5 20 5 5 -7 -10 -7 -18 -19 -18 -26 0
-7 9 -3 20 10 11 12 17 27 14 31 -8 13 -44 11 -44 -2z"/>
<path d="M2110 1202 c0 -5 7 -17 16 -28 10 -12 14 -14 11 -4 -2 8 3 20 10 25
11 8 9 11 -11 13 -14 1 -26 -2 -26 -6z"/>
<path d="M1163 1392 c-171 -1 -273 -6 -273 -12 0 -6 60 -10 154 -10 167 0 166
0 166 -57 0 -39 10 -21 12 21 1 29 5 36 22 36 15 0 17 -3 8 -12 -22 -22 -12
-32 11 -10 22 20 33 22 165 22 135 0 142 -1 142 -20 0 -11 4 -20 9 -20 5 0 7
9 4 20 -6 21 -22 21 489 25 26 0 48 5 48 10 0 10 -381 13 -957 7z"/>
<path d="M1230 1290 c0 -23 5 -30 19 -30 15 0 19 7 19 30 -1 22 -6 30 -20 30
-13 0 -18 -7 -18 -30z"/>
<path d="M1528 1313 c6 -2 12 -16 12 -29 0 -34 17 -30 22 6 4 27 2 30 -21 29
-14 0 -20 -3 -13 -6z"/>
<path d="M1640 1288 c0 -26 3 -30 11 -18 8 11 12 12 16 3 9 -24 20 -13 15 17
-3 21 -10 30 -23 30 -15 0 -19 -7 -19 -32z"/>
<path d="M1752 1308 c-14 -14 2 -48 22 -48 20 0 37 25 30 44 -7 19 -35 21 -52
4z"/>
<path d="M1453 1185 c0 -38 2 -53 4 -32 2 20 2 52 0 70 -2 17 -4 1 -4 -38z"/>
<path d="M1530 1159 c0 -36 4 -58 10 -54 5 3 11 -28 13 -77 l3 -83 2 86 c1 55
-2 89 -10 97 -9 9 -9 12 0 12 7 0 12 5 12 11 0 5 -4 7 -10 4 -5 -3 -10 0 -10
9 0 8 5 16 11 18 5 2 7 11 4 21 -14 35 -25 15 -25 -44z"/>
<path d="M1476 1094 c-10 -25 -7 -184 3 -184 6 0 10 45 10 100 0 55 -1 100 -3
100 -2 0 -7 -7 -10 -16z"/>
<path d="M1442 1003 c-2 -38 -2 -66 1 -63 8 9 15 130 8 130 -3 0 -8 -30 -9
-67z"/>
<path d="M1514 895 c2 -99 17 -143 54 -156 13 -5 22 -4 22 1 0 6 -7 10 -15 10
-29 0 -48 49 -56 143 l-7 92 2 -90z"/>
<path d="M1450 768 c-33 -17 -34 -18 -9 -18 15 0 32 7 39 15 19 22 10 23 -30
3z"/>
<path d="M1384 711 c4 -6 15 -11 24 -11 10 0 28 -7 40 -16 12 -8 22 -10 22 -5
0 6 -5 11 -12 11 -6 0 -8 3 -5 6 4 4 14 1 23 -7 15 -12 17 -12 12 1 -3 9 -17
15 -34 16 -16 0 -40 4 -53 8 -16 6 -21 5 -17 -3z"/>
<path d="M1548 699 c-10 -7 -10 -9 2 -9 13 0 13 -2 1 -9 -8 -5 -20 -7 -26 -4
-8 2 -12 -6 -12 -22 0 -24 0 -25 13 -7 15 22 71 48 81 38 8 -8 -29 -36 -39
-30 -5 3 -8 -1 -8 -9 0 -8 -10 -19 -22 -25 -18 -8 -19 -11 -6 -11 23 -1 88 57
88 78 0 18 -48 25 -72 10z"/>
<path d="M1270 635 c-10 -12 -10 -19 -2 -27 15 -15 48 14 38 31 -10 15 -21 14
-36 -4z"/>
<path d="M1714 639 c-10 -17 23 -46 38 -31 8 8 8 15 -2 27 -15 18 -26 19 -36
4z"/>
<path d="M1670 609 c0 -13 29 -43 36 -36 7 6 -18 47 -28 47 -5 0 -8 -5 -8 -11z"/>
<path d="M1352 583 c-14 -26 -15 -36 -3 -29 5 4 12 0 14 -6 7 -16 27 9 27 32
0 13 -2 13 -9 1 -7 -11 -10 -10 -13 5 -4 18 -5 18 -16 -3z"/>
<path d="M1620 578 c0 -7 5 -20 10 -28 12 -19 35 2 27 24 -7 19 -37 21 -37 4z"/>
<path d="M1410 551 c0 -25 18 -37 33 -22 8 8 6 11 -6 11 -9 0 -17 5 -17 11 0
6 7 9 15 5 8 -3 15 -1 15 4 0 6 -9 10 -20 10 -13 0 -20 -7 -20 -19z"/>
<path d="M1570 559 c0 -5 4 -8 9 -5 5 4 7 -4 4 -15 -4 -15 -2 -20 6 -18 7 3
12 8 12 12 -1 4 -1 14 -1 22 0 8 -7 15 -15 15 -8 0 -15 -5 -15 -11z"/>
<path d="M1472 538 c4 -33 33 -35 33 -3 0 17 -5 25 -18 25 -13 0 -18 -6 -15
-22z"/>
<path d="M2116 2516 c-39 -60 -43 -76 -23 -76 19 0 81 110 69 122 -7 7 -22 -8
-46 -46z"/>
<path d="M2312 2408 c-16 -16 -15 -39 4 -66 8 -12 13 -26 9 -32 -8 -14 -33 -1
-40 21 -7 20 -35 27 -35 9 0 -18 48 -60 68 -60 11 0 25 7 32 15 11 13 10 22
-6 50 -24 45 -11 56 26 20 24 -23 30 -25 30 -11 0 19 -46 66 -64 66 -7 0 -17
-5 -24 -12z"/>
<path d="M616 2362 c-3 -5 17 -30 44 -57 42 -41 50 -46 56 -31 5 13 -5 28 -37
56 -46 41 -54 45 -63 32z"/>
<path d="M477 2196 c-3 -8 8 -33 25 -56 l31 -41 -54 3 c-41 2 -54 0 -54 -11 0
-9 15 -15 45 -18 25 -2 53 -5 62 -7 10 -2 22 2 28 9 9 11 2 28 -30 74 -22 34
-42 61 -44 61 -2 0 -6 -6 -9 -14z"/>
<path d="M2510 2201 c0 -6 5 -13 10 -16 19 -12 10 -24 -35 -51 -25 -14 -45
-30 -45 -34 0 -20 19 -17 61 10 l44 30 16 -21 c29 -39 30 -2 2 45 -25 41 -53
60 -53 37z"/>
<path d="M2658 1934 c-3 -2 -14 -7 -24 -9 -57 -13 -79 -23 -82 -39 -3 -14 1
-16 22 -10 21 5 26 3 26 -12 0 -9 -8 -26 -17 -36 -12 -13 -13 -22 -6 -29 8 -8
15 -4 26 11 9 13 17 17 22 11 10 -17 40 -13 60 9 16 18 17 25 6 60 -11 38 -23
54 -33 44z m7 -65 c0 -33 -32 -38 -44 -7 -6 17 -5 25 8 30 25 10 36 3 36 -23z"/>
<path d="M335 1900 c-3 -5 -8 -18 -10 -27 -2 -10 -7 -28 -11 -40 -5 -18 -1
-23 22 -28 16 -4 38 -10 49 -15 50 -21 53 -20 64 23 14 57 14 61 2 65 -5 2
-14 -12 -19 -30 -4 -18 -15 -33 -23 -33 -15 0 -15 3 -4 48 6 22 4 26 -8 21 -9
-3 -17 -15 -19 -27 -2 -12 -12 -23 -22 -25 -14 -3 -17 0 -12 13 14 38 18 65 8
65 -6 0 -14 -4 -17 -10z"/>
<path d="M2633 1608 c-27 -30 -22 -76 12 -105 33 -29 47 -29 82 1 23 19 29 32
27 58 -4 62 -80 91 -121 46z m87 -27 c15 -29 13 -39 -14 -56 -27 -18 -53 -11
-61 16 -15 47 51 83 75 40z"/>
<path d="M371 1606 c-8 -10 -9 -16 -1 -21 15 -9 12 -41 -6 -59 -20 -21 -30
-20 -54 4 -16 16 -18 25 -10 40 14 26 13 40 -5 40 -18 0 -29 -41 -21 -75 4
-14 17 -32 31 -41 60 -39 135 50 91 109 -11 15 -15 15 -25 3z"/>
<path d="M370 1245 c0 -8 -9 -20 -20 -27 -23 -15 -26 -28 -6 -28 8 0 18 -9 21
-20 3 -11 10 -20 15 -20 4 0 10 9 13 20 3 11 12 20 21 20 22 0 20 13 -4 28
-11 7 -20 19 -20 27 0 8 -4 15 -10 15 -5 0 -10 -7 -10 -15z"/>
<path d="M2606 1218 c-26 -26 -27 -28 -8 -28 12 0 23 -9 28 -22 l6 -21 17 20
c9 11 22 22 29 24 7 3 2 13 -15 29 l-28 25 -29 -27z"/>
<path d="M2457 918 c-31 -56 -27 -78 7 -35 12 15 24 27 27 27 3 0 12 -23 19
-50 12 -45 40 -88 40 -63 0 6 13 30 30 54 20 30 26 47 18 54 -7 7 -14 4 -22
-8 -33 -54 -33 -54 -52 6 -9 31 -22 58 -28 60 -7 3 -24 -18 -39 -45z"/>
<path d="M520 953 c0 -3 7 -14 16 -24 15 -17 14 -19 -17 -39 -38 -23 -65 -22
-63 2 1 9 -5 19 -12 22 -21 8 -18 -38 4 -57 10 -10 25 -17 33 -17 11 0 69 33
97 56 8 6 -33 64 -45 64 -7 0 -13 -3 -13 -7z"/>
<path d="M626 725 c-30 -32 -32 -45 -11 -84 15 -31 33 -41 69 -41 26 0 65 37
70 67 6 28 -33 72 -71 79 -26 5 -36 1 -57 -21z m75 -15 c21 -12 25 -50 7 -68
-39 -39 -100 17 -63 58 21 23 29 24 56 10z"/>
<path d="M2298 716 l-34 -33 30 -35 c58 -64 62 -65 101 -28 19 19 35 41 35 49
0 10 -9 7 -28 -12 -15 -15 -33 -27 -39 -27 -25 0 -23 22 2 42 18 14 23 24 16
31 -7 7 -17 4 -30 -12 -13 -15 -26 -21 -37 -17 -15 6 -14 10 9 34 50 52 28 59
-25 8z"/>
<path d="M868 527 c-31 -59 -34 -70 -19 -75 6 -2 16 8 22 22 12 26 12 26 67
-10 2 -1 -4 -13 -13 -27 -20 -32 1 -52 22 -21 42 59 63 96 58 105 -10 16 -32
10 -38 -11 -6 -24 -24 -25 -51 -5 -16 12 -17 18 -8 27 7 7 12 20 12 30 0 34
-25 18 -52 -35z"/>
<path d="M2072 548 l-32 -20 26 -41 c14 -23 28 -50 31 -59 5 -18 24 -24 36
-12 3 4 2 15 -3 25 -8 14 -6 21 10 29 34 18 44 48 25 76 -19 29 -48 30 -93 2z
m73 -19 c7 -10 -21 -49 -36 -49 -5 0 -13 10 -20 21 -9 17 -8 23 2 30 19 12 47
11 54 -2z"/>
<path d="M1136 391 c-17 -57 -16 -81 4 -81 4 0 11 18 15 40 8 46 23 52 31 12
3 -15 14 -39 24 -52 21 -28 39 -20 45 21 7 43 11 58 18 65 14 14 7 34 -12 34
-14 0 -20 -10 -25 -42 -8 -47 -19 -42 -39 17 -21 60 -40 56 -61 -14z"/>
<path d="M1820 443 c-47 -19 -54 -90 -13 -123 31 -24 65 -20 99 11 57 53 -11
141 -86 112z m64 -39 c23 -22 20 -41 -8 -59 -43 -29 -80 8 -60 59 8 21 48 21
68 0z"/>
<path d="M1530 329 l0 -70 50 3 c53 3 66 23 15 23 -30 0 -30 1 -33 58 -2 42
-7 57 -17 57 -12 0 -15 -16 -15 -71z"/>
</g>
</svg>
